<svg width="132" height="132" viewBox="0 0 132 132" fill="none" xmlns="http://www.w3.org/2000/svg">
<path fill-rule="evenodd" clip-rule="evenodd" d="M59.6924 33.5C41.7432 33.5 27.1925 48.0507 27.1925 65.9999C27.1925 66.1939 27.1942 66.3874 27.1975 66.5805C27.2195 67.8344 26.309 68.9105 25.0688 69.0966C17.9554 70.1638 12.5 76.3051 12.5 83.716C12.5 91.6324 18.7232 98.0967 26.5427 98.4817C26.6112 98.4851 26.6789 98.4912 26.7457 98.4999H97.2613C97.2688 98.4999 97.2763 98.4998 97.2838 98.4998C109.744 98.4998 119.846 88.3986 119.846 75.9382C119.846 63.4777 109.745 53.3765 97.2842 53.3765C95.5112 53.3765 93.7889 53.5805 92.1385 53.9653C90.9782 54.2359 89.7881 53.65 89.295 52.5653C84.1803 41.3147 72.8463 33.5 59.6924 33.5ZM97.3074 103.5C97.2995 103.5 97.2917 103.5 97.2838 103.5H26.4198C26.2584 103.5 26.1006 103.485 25.9477 103.455C15.6434 102.767 7.5 94.1934 7.5 83.716C7.5 74.5394 13.7457 66.8254 22.2186 64.5871C22.9615 44.5311 39.4548 28.5 59.6924 28.5C74.1715 28.5 86.7292 36.7058 92.9774 48.7114C94.3819 48.4908 95.8204 48.3765 97.2842 48.3765C112.506 48.3765 124.846 60.7163 124.846 75.9382C124.846 91.1523 112.519 103.487 97.3074 103.5Z" fill="white"/>
</svg>
