<svg width="132" height="132" viewBox="0 0 132 132" fill="none" xmlns="http://www.w3.org/2000/svg">
<path fill-rule="evenodd" clip-rule="evenodd" d="M13.303 34.2344C14.1822 33.806 15.2357 33.9752 15.9365 34.6574L40.0449 58.1286L64.1533 34.6574C64.5942 34.2282 65.1876 33.9918 65.8028 34.0003C66.418 34.0087 67.0047 34.2614 67.4336 34.7026L90.2054 58.1275L115.649 34.6158C116.359 33.9596 117.402 33.8129 118.266 34.2479C119.129 34.6828 119.633 35.608 119.528 36.5693L113.079 95.9316C112.951 97.1084 111.958 98 110.774 98H20.7679C19.5842 98 18.5905 97.1084 18.4626 95.9316L12.0136 36.5693C11.908 35.597 12.4238 34.6629 13.303 34.2344ZM114.249 42.2244L91.6924 63.068C90.7686 63.9216 89.3327 63.8831 88.456 62.9813L65.7257 39.5991L41.6625 63.0264C40.7622 63.9029 39.3276 63.9029 38.4273 63.0264L17.3204 42.4774L22.8485 93.3623H108.693L114.249 42.2244Z" fill="white"/>
</svg>
