<?xml version="1.0" encoding="utf-8"?>
<!-- Generator: Adobe Illustrator 22.0.1, SVG Export Plug-In . SVG Version: 6.00 Build 0)  -->
<svg version="1.1" id="Layer_1" xmlns="http://www.w3.org/2000/svg" xmlns:xlink="http://www.w3.org/1999/xlink" x="0px" y="0px"
	 viewBox="0 0 100 100" style="enable-background:new 0 0 100 100;" xml:space="preserve">
<style type="text/css">
	.st0{fill:url(#SVGID_1_);}
	.st1{fill:#A9D1DB;}
	.st2{fill:#FFFFFF;}
	.st3{fill:#D1E2EA;}
</style>
<g>
	
		<linearGradient id="SVGID_1_" gradientUnits="userSpaceOnUse" x1="50" y1="85.7823" x2="50" y2="14.2544" gradientTransform="matrix(1 0 0 -1 0 100)">
		<stop  offset="0" style="stop-color:#2DAFEF"/>
		<stop  offset="1" style="stop-color:#1D95D1"/>
	</linearGradient>
	<circle class="st0" cx="50" cy="50" r="40"/>
	<g>
		<path class="st1" d="M35.5,54.7l3.9,12.1c0.3,0.9,1.3,1.2,2,0.6l11.8-9.7c0,0-12.5-4.9-12.5-4.6C40.8,53.3,35.5,54.7,35.5,54.7z"
			/>
		<path class="st2" d="M66.6,31.5c-7.7,3-32.5,13.2-41.9,17.1c-1.2,0.5-1.2,2.3,0.1,2.7l10.7,3.4l3.9,12c0.2,0.5,0.6,0.8,1,0.9
			c0.4,0.1,0.9-9.7,0.9-9.7S52.7,66.2,58,70.2c1.3,1,3.2,0.2,3.5-1.4c1.6-8.2,5.6-28.8,6.9-35.8C68.7,32,67.6,31.1,66.6,31.5z"/>
		<path class="st3" d="M40.5,67.6c0.4,0.1,0.9-9.7,0.9-9.7l18.5-17.4c0.1-0.1,0-0.3-0.2-0.2L35.5,54.7l3.9,12
			C39.6,67.2,40,67.5,40.5,67.6z"/>
	</g>
</g>
</svg>
