<?xml version="1.0" encoding="utf-8"?>
<!-- Generator: Adobe Illustrator 22.0.1, SVG Export Plug-In . SVG Version: 6.00 Build 0)  -->
<svg version="1.1" id="Layer_1" xmlns="http://www.w3.org/2000/svg" xmlns:xlink="http://www.w3.org/1999/xlink" x="0px" y="0px"
	 viewBox="0 0 100 100" style="enable-background:new 0 0 100 100;" xml:space="preserve">
<style type="text/css">
	.st0{fill:#009EF7;}
</style>
<path class="st0" d="M89.6,24.1c-2.5,1.1-5.4,1.8-8.1,2.3c1.3-0.2,3.2-2.6,4-3.5c1.2-1.5,2.1-3.1,2.7-4.9c0.1-0.1,0.1-0.3,0-0.4
	c-0.2-0.1-0.3,0-0.4,0c-3.1,1.6-6.2,2.8-9.6,3.7c-0.3,0.1-0.5,0-0.7-0.2c-0.3-0.3-0.5-0.6-0.8-0.9c-1.4-1.2-2.9-2.1-4.6-2.8
	c-2.2-0.9-4.7-1.3-7.1-1.1c-2.4,0.2-4.7,0.8-6.8,1.9c-2.1,1.1-4,2.6-5.5,4.5c-1.5,1.9-2.7,4.1-3.3,6.5c-0.6,2.3-0.5,4.6-0.2,6.9
	c0.1,0.4,0,0.4-0.3,0.4c-13.2-2-24.1-6.7-33-16.8c-0.4-0.4-0.6-0.4-0.9,0c-3.9,5.8-2,15.2,2.8,19.7c0.6,0.6,1.3,1.2,2,1.8
	c-0.3,0.1-3.5-0.3-6.4-1.8c-0.3-0.2-0.5-0.1-0.5,0.4c0,0.6,0,1.2,0.1,1.9c0.7,5.8,4.8,11.3,10.4,13.4c0.7,0.3,1.4,0.5,2.1,0.6
	c-1.3,0.3-2.6,0.5-6.2,0.2c-0.5-0.1-0.6,0.1-0.5,0.6c2.7,7.5,8.7,9.7,13.1,11c0.6,0.1,1.2,0.1,1.8,0.2c0,0.1-0.1,0.1-0.1,0.1
	c-1.5,2.2-6.6,3.9-9,4.7c-4.3,1.5-9,2.2-13.6,1.7c-0.7-0.1-0.9-0.1-1.1,0c-0.2,0.1,0,0.3,0.2,0.5c0.9,0.6,1.9,1.2,2.8,1.7
	c2.9,1.5,5.9,2.8,9.1,3.6c16.3,4.5,34.7,1.2,47-11c9.6-9.6,13-22.8,13-36c0-0.5,0.6-0.8,1-1.1c2.5-1.9,4.2-3.7,6.1-6.2
	c0.5-0.7,0.7-1.3,0.8-1.7v-0.1C89.9,23.9,89.9,24,89.6,24.1z"/>
</svg>
